<mxfile host="app.diagrams.net" modified="2021-10-13T17:36:00.367Z" agent="5.0 (Windows NT 10.0; Win64; x64) AppleWebKit/537.36 (KHTML, like Gecko) Chrome/94.0.4606.81 Safari/537.36" etag="mxFDK-7fEqklpjYA-ctG" version="15.5.2" type="github">
  <diagram id="jpkeMlJZY0L07vB966m6" name="Page-1">
    <mxGraphModel dx="2026" dy="1117" grid="1" gridSize="10" guides="1" tooltips="1" connect="1" arrows="1" fold="1" page="1" pageScale="1" pageWidth="827" pageHeight="1169" math="0" shadow="0">
      <root>
        <mxCell id="0" />
        <mxCell id="1" parent="0" />
        <mxCell id="SEU0Jb7wydcwOkPKXHHr-3" value="" style="html=1;shadow=0;dashed=0;align=center;verticalAlign=middle;shape=mxgraph.arrows2.jumpInArrow;dy=15;dx=38;arrowHead=55;rounded=1;strokeWidth=5;fillColor=#bac8d3;strokeColor=#23445d;" parent="1" vertex="1">
          <mxGeometry x="20" y="15" width="260" height="350" as="geometry" />
        </mxCell>
        <mxCell id="SEU0Jb7wydcwOkPKXHHr-24" value="" style="group" parent="1" vertex="1" connectable="0">
          <mxGeometry x="280" y="15" width="390" height="565" as="geometry" />
        </mxCell>
        <mxCell id="SEU0Jb7wydcwOkPKXHHr-22" value="" style="group" parent="SEU0Jb7wydcwOkPKXHHr-24" vertex="1" connectable="0">
          <mxGeometry x="10" y="45" width="370" height="500" as="geometry" />
        </mxCell>
        <mxCell id="SEU0Jb7wydcwOkPKXHHr-7" value="start" style="strokeWidth=2;html=1;shape=mxgraph.flowchart.start_1;whiteSpace=wrap;rounded=0;shadow=0;glass=0;sketch=0;fillColor=none;" parent="SEU0Jb7wydcwOkPKXHHr-22" vertex="1">
          <mxGeometry x="144" width="100" height="60" as="geometry" />
        </mxCell>
        <mxCell id="SEU0Jb7wydcwOkPKXHHr-12" value="프레스 실행" style="whiteSpace=wrap;html=1;rounded=1;shadow=0;strokeWidth=2;fillColor=none;glass=0;sketch=0;" parent="SEU0Jb7wydcwOkPKXHHr-22" vertex="1">
          <mxGeometry y="140" width="180" height="60" as="geometry" />
        </mxCell>
        <mxCell id="SEU0Jb7wydcwOkPKXHHr-13" value="" style="edgeStyle=orthogonalEdgeStyle;rounded=0;orthogonalLoop=1;jettySize=auto;html=1;" parent="SEU0Jb7wydcwOkPKXHHr-22" source="SEU0Jb7wydcwOkPKXHHr-7" target="SEU0Jb7wydcwOkPKXHHr-12" edge="1">
          <mxGeometry relative="1" as="geometry" />
        </mxCell>
        <mxCell id="SEU0Jb7wydcwOkPKXHHr-19" value="" style="edgeStyle=orthogonalEdgeStyle;rounded=0;orthogonalLoop=1;jettySize=auto;html=1;" parent="SEU0Jb7wydcwOkPKXHHr-22" source="SEU0Jb7wydcwOkPKXHHr-14" edge="1">
          <mxGeometry relative="1" as="geometry">
            <mxPoint x="194" y="300" as="targetPoint" />
            <Array as="points">
              <mxPoint x="290" y="250" />
              <mxPoint x="194" y="250" />
            </Array>
          </mxGeometry>
        </mxCell>
        <mxCell id="SEU0Jb7wydcwOkPKXHHr-14" value="가열로 실행" style="whiteSpace=wrap;html=1;rounded=1;shadow=0;strokeWidth=2;fillColor=none;glass=0;sketch=0;" parent="SEU0Jb7wydcwOkPKXHHr-22" vertex="1">
          <mxGeometry x="210" y="140" width="160" height="60" as="geometry" />
        </mxCell>
        <mxCell id="SEU0Jb7wydcwOkPKXHHr-15" value="" style="edgeStyle=orthogonalEdgeStyle;rounded=0;orthogonalLoop=1;jettySize=auto;html=1;" parent="SEU0Jb7wydcwOkPKXHHr-22" source="SEU0Jb7wydcwOkPKXHHr-7" target="SEU0Jb7wydcwOkPKXHHr-14" edge="1">
          <mxGeometry relative="1" as="geometry" />
        </mxCell>
        <mxCell id="SEU0Jb7wydcwOkPKXHHr-16" value="시뮬레이션 결과 출력" style="whiteSpace=wrap;html=1;rounded=1;shadow=0;strokeWidth=2;fillColor=none;glass=0;sketch=0;" parent="SEU0Jb7wydcwOkPKXHHr-22" vertex="1">
          <mxGeometry x="104" y="300" width="180" height="60" as="geometry" />
        </mxCell>
        <mxCell id="SEU0Jb7wydcwOkPKXHHr-17" value="" style="edgeStyle=orthogonalEdgeStyle;rounded=0;orthogonalLoop=1;jettySize=auto;html=1;" parent="SEU0Jb7wydcwOkPKXHHr-22" source="SEU0Jb7wydcwOkPKXHHr-12" target="SEU0Jb7wydcwOkPKXHHr-16" edge="1">
          <mxGeometry relative="1" as="geometry" />
        </mxCell>
        <mxCell id="SEU0Jb7wydcwOkPKXHHr-20" value="end" style="ellipse;whiteSpace=wrap;html=1;rounded=1;shadow=0;strokeWidth=2;fillColor=none;glass=0;sketch=0;" parent="SEU0Jb7wydcwOkPKXHHr-22" vertex="1">
          <mxGeometry x="134" y="440" width="120" height="60" as="geometry" />
        </mxCell>
        <mxCell id="SEU0Jb7wydcwOkPKXHHr-21" value="" style="edgeStyle=orthogonalEdgeStyle;rounded=0;orthogonalLoop=1;jettySize=auto;html=1;" parent="SEU0Jb7wydcwOkPKXHHr-22" source="SEU0Jb7wydcwOkPKXHHr-16" target="SEU0Jb7wydcwOkPKXHHr-20" edge="1">
          <mxGeometry relative="1" as="geometry" />
        </mxCell>
        <mxCell id="SEU0Jb7wydcwOkPKXHHr-23" value="시뮬레이션" style="swimlane;fontStyle=0;childLayout=stackLayout;horizontal=1;startSize=30;horizontalStack=0;resizeParent=1;resizeParentMax=0;resizeLast=0;collapsible=1;marginBottom=0;align=center;fontSize=22;rounded=0;strokeWidth=5;swimlaneLine=1;" parent="SEU0Jb7wydcwOkPKXHHr-24" vertex="1">
          <mxGeometry width="390" height="565" as="geometry" />
        </mxCell>
        <mxCell id="SEU0Jb7wydcwOkPKXHHr-25" value="" style="html=1;shadow=0;dashed=0;align=center;verticalAlign=middle;shape=mxgraph.arrows2.jumpInArrow;dy=15;dx=38;arrowHead=55;rounded=1;strokeWidth=5;fillColor=#bac8d3;strokeColor=#23445d;" parent="1" vertex="1">
          <mxGeometry x="650" y="10" width="180" height="210" as="geometry" />
        </mxCell>
        <mxCell id="SEU0Jb7wydcwOkPKXHHr-28" value="" style="edgeStyle=orthogonalEdgeStyle;rounded=0;orthogonalLoop=1;jettySize=auto;html=1;" parent="1" source="SEU0Jb7wydcwOkPKXHHr-26" target="SEU0Jb7wydcwOkPKXHHr-27" edge="1">
          <mxGeometry relative="1" as="geometry" />
        </mxCell>
        <mxCell id="SEU0Jb7wydcwOkPKXHHr-26" value="start" style="strokeWidth=2;html=1;shape=mxgraph.flowchart.start_1;whiteSpace=wrap;rounded=0;shadow=0;glass=0;sketch=0;fillColor=none;" parent="1" vertex="1">
          <mxGeometry x="970" y="60" width="100" height="60" as="geometry" />
        </mxCell>
        <mxCell id="hFYSCHVBPnE89d1hqKfu-2" value="" style="edgeStyle=orthogonalEdgeStyle;rounded=0;orthogonalLoop=1;jettySize=auto;html=1;" edge="1" parent="1" source="SEU0Jb7wydcwOkPKXHHr-27" target="hFYSCHVBPnE89d1hqKfu-1">
          <mxGeometry relative="1" as="geometry" />
        </mxCell>
        <mxCell id="SEU0Jb7wydcwOkPKXHHr-27" value="idle" style="whiteSpace=wrap;html=1;rounded=1;shadow=0;strokeWidth=2;fillColor=none;glass=0;sketch=0;" parent="1" vertex="1">
          <mxGeometry x="930" y="200" width="180" height="60" as="geometry" />
        </mxCell>
        <mxCell id="hFYSCHVBPnE89d1hqKfu-4" value="" style="edgeStyle=orthogonalEdgeStyle;rounded=0;orthogonalLoop=1;jettySize=auto;html=1;" edge="1" parent="1" source="hFYSCHVBPnE89d1hqKfu-1" target="hFYSCHVBPnE89d1hqKfu-3">
          <mxGeometry relative="1" as="geometry" />
        </mxCell>
        <mxCell id="hFYSCHVBPnE89d1hqKfu-1" value="가열로 작업 할당" style="whiteSpace=wrap;html=1;rounded=1;shadow=0;strokeWidth=2;fillColor=none;glass=0;sketch=0;" vertex="1" parent="1">
          <mxGeometry x="930" y="340" width="180" height="60" as="geometry" />
        </mxCell>
        <mxCell id="hFYSCHVBPnE89d1hqKfu-6" value="" style="edgeStyle=orthogonalEdgeStyle;rounded=0;orthogonalLoop=1;jettySize=auto;html=1;" edge="1" parent="1" source="hFYSCHVBPnE89d1hqKfu-3" target="hFYSCHVBPnE89d1hqKfu-5">
          <mxGeometry relative="1" as="geometry" />
        </mxCell>
        <mxCell id="hFYSCHVBPnE89d1hqKfu-3" value="door opening" style="whiteSpace=wrap;html=1;rounded=1;shadow=0;strokeWidth=2;fillColor=none;glass=0;sketch=0;" vertex="1" parent="1">
          <mxGeometry x="930" y="480" width="180" height="60" as="geometry" />
        </mxCell>
        <mxCell id="hFYSCHVBPnE89d1hqKfu-8" value="" style="edgeStyle=orthogonalEdgeStyle;rounded=0;orthogonalLoop=1;jettySize=auto;html=1;" edge="1" parent="1" source="hFYSCHVBPnE89d1hqKfu-5" target="hFYSCHVBPnE89d1hqKfu-7">
          <mxGeometry relative="1" as="geometry" />
        </mxCell>
        <mxCell id="hFYSCHVBPnE89d1hqKfu-5" value="insertion" style="whiteSpace=wrap;html=1;rounded=1;shadow=0;strokeWidth=2;fillColor=none;glass=0;sketch=0;" vertex="1" parent="1">
          <mxGeometry x="930" y="620" width="180" height="60" as="geometry" />
        </mxCell>
        <mxCell id="hFYSCHVBPnE89d1hqKfu-10" value="" style="edgeStyle=orthogonalEdgeStyle;rounded=0;orthogonalLoop=1;jettySize=auto;html=1;" edge="1" parent="1" source="hFYSCHVBPnE89d1hqKfu-7" target="hFYSCHVBPnE89d1hqKfu-9">
          <mxGeometry relative="1" as="geometry" />
        </mxCell>
        <mxCell id="hFYSCHVBPnE89d1hqKfu-7" value="door closing" style="whiteSpace=wrap;html=1;rounded=1;shadow=0;strokeWidth=2;fillColor=none;glass=0;sketch=0;" vertex="1" parent="1">
          <mxGeometry x="930" y="760" width="180" height="60" as="geometry" />
        </mxCell>
        <mxCell id="hFYSCHVBPnE89d1hqKfu-12" value="" style="edgeStyle=orthogonalEdgeStyle;rounded=0;orthogonalLoop=1;jettySize=auto;html=1;" edge="1" parent="1" source="hFYSCHVBPnE89d1hqKfu-9" target="hFYSCHVBPnE89d1hqKfu-11">
          <mxGeometry relative="1" as="geometry" />
        </mxCell>
        <mxCell id="hFYSCHVBPnE89d1hqKfu-9" value="heating" style="whiteSpace=wrap;html=1;rounded=1;shadow=0;strokeWidth=2;fillColor=none;glass=0;sketch=0;" vertex="1" parent="1">
          <mxGeometry x="930" y="900" width="180" height="60" as="geometry" />
        </mxCell>
        <mxCell id="hFYSCHVBPnE89d1hqKfu-14" value="" style="edgeStyle=orthogonalEdgeStyle;rounded=0;orthogonalLoop=1;jettySize=auto;html=1;" edge="1" parent="1" source="hFYSCHVBPnE89d1hqKfu-11" target="hFYSCHVBPnE89d1hqKfu-13">
          <mxGeometry relative="1" as="geometry" />
        </mxCell>
        <mxCell id="hFYSCHVBPnE89d1hqKfu-11" value="keeping" style="whiteSpace=wrap;html=1;rounded=1;shadow=0;strokeWidth=2;fillColor=none;glass=0;sketch=0;" vertex="1" parent="1">
          <mxGeometry x="930" y="1040" width="180" height="60" as="geometry" />
        </mxCell>
        <mxCell id="hFYSCHVBPnE89d1hqKfu-16" value="" style="edgeStyle=orthogonalEdgeStyle;rounded=0;orthogonalLoop=1;jettySize=auto;html=1;" edge="1" parent="1" source="hFYSCHVBPnE89d1hqKfu-13" target="hFYSCHVBPnE89d1hqKfu-15">
          <mxGeometry relative="1" as="geometry" />
        </mxCell>
        <mxCell id="hFYSCHVBPnE89d1hqKfu-13" value="door opening" style="whiteSpace=wrap;html=1;rounded=1;shadow=0;strokeWidth=2;fillColor=none;glass=0;sketch=0;" vertex="1" parent="1">
          <mxGeometry x="930" y="1180" width="180" height="60" as="geometry" />
        </mxCell>
        <mxCell id="hFYSCHVBPnE89d1hqKfu-18" value="" style="edgeStyle=orthogonalEdgeStyle;rounded=0;orthogonalLoop=1;jettySize=auto;html=1;" edge="1" parent="1" source="hFYSCHVBPnE89d1hqKfu-15" target="hFYSCHVBPnE89d1hqKfu-17">
          <mxGeometry relative="1" as="geometry" />
        </mxCell>
        <mxCell id="hFYSCHVBPnE89d1hqKfu-15" value="discharging" style="whiteSpace=wrap;html=1;rounded=1;shadow=0;strokeWidth=2;fillColor=none;glass=0;sketch=0;" vertex="1" parent="1">
          <mxGeometry x="930" y="1320" width="180" height="60" as="geometry" />
        </mxCell>
        <mxCell id="hFYSCHVBPnE89d1hqKfu-21" value="" style="edgeStyle=orthogonalEdgeStyle;rounded=0;orthogonalLoop=1;jettySize=auto;html=1;entryX=1;entryY=0.5;entryDx=0;entryDy=0;" edge="1" parent="1" source="hFYSCHVBPnE89d1hqKfu-17" target="hFYSCHVBPnE89d1hqKfu-11">
          <mxGeometry relative="1" as="geometry">
            <mxPoint x="1150" y="1070" as="targetPoint" />
            <Array as="points">
              <mxPoint x="1150" y="1490" />
              <mxPoint x="1150" y="1070" />
            </Array>
          </mxGeometry>
        </mxCell>
        <mxCell id="hFYSCHVBPnE89d1hqKfu-23" value="" style="edgeStyle=orthogonalEdgeStyle;rounded=0;orthogonalLoop=1;jettySize=auto;html=1;entryX=1;entryY=0.5;entryDx=0;entryDy=0;" edge="1" parent="1" source="hFYSCHVBPnE89d1hqKfu-17" target="SEU0Jb7wydcwOkPKXHHr-27">
          <mxGeometry relative="1" as="geometry">
            <mxPoint x="1380" y="458" as="targetPoint" />
            <Array as="points">
              <mxPoint x="1020" y="1540" />
              <mxPoint x="1200" y="1540" />
              <mxPoint x="1200" y="230" />
            </Array>
          </mxGeometry>
        </mxCell>
        <mxCell id="hFYSCHVBPnE89d1hqKfu-17" value="door closing" style="whiteSpace=wrap;html=1;rounded=1;shadow=0;strokeWidth=2;fillColor=none;glass=0;sketch=0;" vertex="1" parent="1">
          <mxGeometry x="930" y="1460" width="180" height="60" as="geometry" />
        </mxCell>
      </root>
    </mxGraphModel>
  </diagram>
</mxfile>
